<svg id="Layer_1" data-name="Layer 1" xmlns="http://www.w3.org/2000/svg" viewBox="0 0 3117.5 900"><defs><style>.cls-1{fill:#fff;}.cls-2{fill:#d50000;}.cls-3{fill:#283593;}</style></defs><title>Logo-Header</title><circle class="cls-1" cx="750" cy="2404.18" r="422.01" transform="translate(-1780.34 -719.68) rotate(-45)"/><polygon class="cls-2" points="599.22 93.52 450 364 300.78 93.52 127.22 544.94 226 544.94 318.32 325.23 450 575.41 581.68 325.23 674 544.94 772.78 544.94 599.22 93.52"/><path class="cls-2" d="M750,1954.18c-248.53,0-450,201.47-450,450s201.47,450,450,450,450-201.47,450-450S998.53,1954.18,750,1954.18Zm0,872c-233.07,0-422-188.94-422-422s188.94-422,422-422,422,188.94,422,422S983.07,2826.19,750,2826.19Z" transform="translate(-300 -1954.18)"/><path class="cls-3" d="M1049.79,2566.76c-34.79,1.91-52.07-2.89-70.36-8-20.07-5.57-40.82-11.33-81-9.12-39.15,2.15-59.95,11-78.3,18.74-18.59,7.88-34.64,14.68-70.1,14.8h-.84c-32.67,0-47.67-6.59-65-14.21-17.54-7.7-37.42-16.43-74.83-18.34-38.4-2-58.19,4-77.33,9.71-17.2,5.16-33.45,10-66.13,8.37s-48.35-8.16-64.94-15c-6.37-2.64-12.82-5.31-20.1-7.75a393.4,393.4,0,0,0,19.74,43.34c15.35,5.84,33.57,11,63.61,12.55,38.41,2,58.2-4,77.34-9.72,17.2-5.15,33.44-10,66.13-8.36,31.33,1.6,46.8,8.4,63.18,15.59,19,8.36,38.71,17,78.36,17h.93c42.13-.14,62.87-8.93,82.92-17.42,17.39-7.37,33.82-14.33,67.19-16.16,34.78-1.91,52.06,2.88,70.36,8,20.06,5.56,40.81,11.32,81,9.11,19.05-1,33.55-3.39,45.6-6.38a391.92,391.92,0,0,0,19.63-41.52C1099.92,2558.69,1083.24,2564.92,1049.79,2566.76Z" transform="translate(-300 -1954.18)"/><path class="cls-3" d="M979.43,2625.09c-20.07-5.57-40.82-11.33-81-9.12-39.15,2.15-59.95,11-78.3,18.74-18.59,7.88-34.64,14.68-70.1,14.8h-.84c-32.67,0-47.67-6.59-65-14.2-17.54-7.71-37.42-16.44-74.83-18.35-38.4-1.95-58.19,4-77.33,9.72-17.2,5.15-33.45,10-66.13,8.36-17.91-.92-30.71-3.28-41.35-6.36C495.84,2731.92,615,2799.56,750,2799.56c134.15,0,252.7-66.82,324.18-169a242.67,242.67,0,0,1-24.39,2.48C1015,2635,997.72,2630.16,979.43,2625.09Z" transform="translate(-300 -1954.18)"/><path class="cls-2" d="M1350,2186h123.52l126,254.48L1724.9,2186h123.51v435.1H1747.86l-.62-275.58-111.1,232.14H1562.9l-111.73-232.14v275.58H1350Z" transform="translate(-300 -1954.18)"/><path class="cls-2" d="M1932.83,2186h113.58v435.1H1932.83Z" transform="translate(-300 -1954.18)"/><path class="cls-2" d="M2395.23,2291.22q-29.17-15.82-57.72-15.83-32.91,0-59.9,16.45a116.55,116.55,0,0,0-42.52,45.31q-15.53,28.86-15.51,64.24t15.51,64.24a116.48,116.48,0,0,0,42.52,45.31q27,16.45,59.9,16.45,26.67,0,55.86-13.66a177,177,0,0,0,52.14-37.24l66.41,71.38a265.49,265.49,0,0,1-84.1,59.28q-48.74,22-96.52,22-64.56,0-116.69-29.79a217.62,217.62,0,0,1-81.93-81.31q-29.79-51.51-29.79-115.45,0-63.32,30.41-114.21t83.48-80.06q53.07-29.18,118.86-29.18,48.42,0,95.59,20.17t80.07,54.94l-65.79,79.44A162.45,162.45,0,0,0,2395.23,2291.22Z" transform="translate(-300 -1954.18)"/><path class="cls-2" d="M2817.3,2291.22q-29.19-15.82-57.73-15.83-32.91,0-59.89,16.45a116.55,116.55,0,0,0-42.52,45.31q-15.52,28.86-15.52,64.24t15.52,64.24a116.48,116.48,0,0,0,42.52,45.31q27,16.45,59.89,16.45,26.68,0,55.86-13.66a176.69,176.69,0,0,0,52.14-37.24l66.42,71.38a265.53,265.53,0,0,1-84.11,59.28q-48.74,22-96.51,22-64.57,0-116.69-29.79a217.72,217.72,0,0,1-81.94-81.31Q2525,2466.57,2525,2402.63q0-63.32,30.41-114.21t83.49-80.06q53.07-29.18,118.86-29.18,48.42,0,95.59,20.17t80.07,54.94l-65.8,79.44A162.41,162.41,0,0,0,2817.3,2291.22Z" transform="translate(-300 -1954.18)"/><path class="cls-2" d="M3302.36,2208.36q53.68,29.17,84.41,80.06t30.73,114.21q0,63.93-30.73,115.45t-84.41,81.31q-53.7,29.79-120.1,29.79t-120.11-29.48q-53.68-29.47-84.41-81.31T2947,2402.63q0-63.32,30.72-114.21t84.41-80.06q53.68-29.18,120.11-29.18T3302.36,2208.36Zm-178.76,83.79q-27.61,16.76-43.76,46.24t-16.13,64.86q0,36,16.44,65.48t43.76,46.56a110.29,110.29,0,0,0,59.59,17.07,108.79,108.79,0,0,0,59.28-17.07q27-17.07,42.51-46.56t15.52-65.48q0-35.37-15.52-64.86t-42.51-46.24a110.3,110.3,0,0,0-59.28-16.76A113.4,113.4,0,0,0,3123.6,2292.15Z" transform="translate(-300 -1954.18)"/></svg>